<svg xmlns="http://www.w3.org/2000/svg" version="1.1" xmlns:xlink="http://www.w3.org/1999/xlink" xmlns:svgjs="http://svgjs.dev/svgjs" width="1000" height="1000"><style>
    #light-icon {
      display: inline;
    }
    #dark-icon {
      display: none;
    }

    @media (prefers-color-scheme: dark) {
      #light-icon {
        display: none;
      }
      #dark-icon {
        display: inline;
      }
    }
  </style><g id="light-icon"><svg xmlns="http://www.w3.org/2000/svg" version="1.1" xmlns:xlink="http://www.w3.org/1999/xlink" xmlns:svgjs="http://svgjs.dev/svgjs" width="1000" height="1000"><g clip-path="url(#SvgjsClipPath1082)"><rect width="1000" height="1000" fill="#000000"></rect><g transform="matrix(10,0,0,10,0,0)"><svg xmlns="http://www.w3.org/2000/svg" version="1.1" xmlns:xlink="http://www.w3.org/1999/xlink" xmlns:svgjs="http://svgjs.dev/svgjs" width="100" height="100"><svg width="100" height="100" viewBox="0 0 100 100" fill="none" xmlns="http://www.w3.org/2000/svg">
<rect width="100" height="100" fill="white"></rect>
<path d="M29.4815 85.4091V17.9091H36.7685V25.7074H37.6634C38.2173 24.8551 38.9844 23.7685 39.9645 22.4474C40.9659 21.1051 42.3935 19.9119 44.2472 18.8679C46.1222 17.8026 48.6577 17.2699 51.8537 17.2699C55.9872 17.2699 59.6307 18.3033 62.7841 20.37C65.9375 22.4368 68.3984 25.3665 70.1669 29.1591C71.9354 32.9517 72.8196 37.4261 72.8196 42.5824C72.8196 47.7812 71.9354 52.2876 70.1669 56.1016C68.3984 59.8942 65.9482 62.8345 62.8161 64.9226C59.684 66.9893 56.0724 68.0227 51.9815 68.0227C48.8281 68.0227 46.3033 67.5007 44.407 66.4567C42.5107 65.3913 41.0511 64.1875 40.0284 62.8452C39.0057 61.4815 38.2173 60.3523 37.6634 59.4574H37.0241V85.4091H29.4815ZM36.8963 42.4545C36.8963 46.1619 37.4396 49.4325 38.5263 52.2663C39.6129 55.0788 41.2003 57.2841 43.2884 58.8821C45.3764 60.4588 47.9332 61.2472 50.9588 61.2472C54.1122 61.2472 56.7436 60.4162 58.853 58.7543C60.9837 57.071 62.5817 54.8125 63.647 51.9787C64.7337 49.1236 65.277 45.9489 65.277 42.4545C65.277 39.0028 64.7443 35.892 63.679 33.1222C62.6349 30.331 61.0476 28.1257 58.9169 26.5064C56.8075 24.8658 54.1548 24.0455 50.9588 24.0455C47.8906 24.0455 45.3125 24.8232 43.2244 26.3786C41.1364 27.9126 39.5597 30.0646 38.4943 32.8345C37.429 35.5831 36.8963 38.7898 36.8963 42.4545Z" fill="black"></path>
</svg></svg></g></g><defs><clipPath id="SvgjsClipPath1082"><rect width="1000" height="1000" x="0" y="0" rx="500" ry="500"></rect></clipPath></defs></svg></g><g id="dark-icon"><svg xmlns="http://www.w3.org/2000/svg" version="1.1" xmlns:xlink="http://www.w3.org/1999/xlink" xmlns:svgjs="http://svgjs.dev/svgjs" width="1000" height="1000"><g clip-path="url(#SvgjsClipPath1083)"><rect width="1000" height="1000" fill="#ffffff"></rect><g transform="matrix(10,0,0,10,0,0)"><svg xmlns="http://www.w3.org/2000/svg" version="1.1" xmlns:xlink="http://www.w3.org/1999/xlink" xmlns:svgjs="http://svgjs.dev/svgjs" width="100" height="100"><svg width="100" height="100" viewBox="0 0 100 100" fill="none" xmlns="http://www.w3.org/2000/svg">
<rect width="100" height="100" fill="white"></rect>
<path d="M29.4815 85.4091V17.9091H36.7685V25.7074H37.6634C38.2173 24.8551 38.9844 23.7685 39.9645 22.4474C40.9659 21.1051 42.3935 19.9119 44.2472 18.8679C46.1222 17.8026 48.6577 17.2699 51.8537 17.2699C55.9872 17.2699 59.6307 18.3033 62.7841 20.37C65.9375 22.4368 68.3984 25.3665 70.1669 29.1591C71.9354 32.9517 72.8196 37.4261 72.8196 42.5824C72.8196 47.7812 71.9354 52.2876 70.1669 56.1016C68.3984 59.8942 65.9482 62.8345 62.8161 64.9226C59.684 66.9893 56.0724 68.0227 51.9815 68.0227C48.8281 68.0227 46.3033 67.5007 44.407 66.4567C42.5107 65.3913 41.0511 64.1875 40.0284 62.8452C39.0057 61.4815 38.2173 60.3523 37.6634 59.4574H37.0241V85.4091H29.4815ZM36.8963 42.4545C36.8963 46.1619 37.4396 49.4325 38.5263 52.2663C39.6129 55.0788 41.2003 57.2841 43.2884 58.8821C45.3764 60.4588 47.9332 61.2472 50.9588 61.2472C54.1122 61.2472 56.7436 60.4162 58.853 58.7543C60.9837 57.071 62.5817 54.8125 63.647 51.9787C64.7337 49.1236 65.277 45.9489 65.277 42.4545C65.277 39.0028 64.7443 35.892 63.679 33.1222C62.6349 30.331 61.0476 28.1257 58.9169 26.5064C56.8075 24.8658 54.1548 24.0455 50.9588 24.0455C47.8906 24.0455 45.3125 24.8232 43.2244 26.3786C41.1364 27.9126 39.5597 30.0646 38.4943 32.8345C37.429 35.5831 36.8963 38.7898 36.8963 42.4545Z" fill="black"></path>
</svg></svg></g></g><defs><clipPath id="SvgjsClipPath1083"><rect width="1000" height="1000" x="0" y="0" rx="500" ry="500"></rect></clipPath></defs></svg></g></svg>